<svg width="60" height="65" viewBox="0 0 60 65" fill="none" xmlns="http://www.w3.org/2000/svg">
<path d="M38.7699 20.4663C35.8527 16.5709 32.075 10.8221 30.638 5.587C29.7826 2.4587 30.1777 0.983234 30.1777 0.965603C30.1885 0.91841 30.1719 0.871216 30.134 0.841654C30.0955 0.818146 30.0463 0.823667 30.0131 0.853229C29.9697 0.900423 28.8675 2.06922 28.2696 4.34732C27.9189 5.68138 27.8199 7.12746 27.9735 8.63231C28.1652 10.509 28.752 12.4982 29.7173 14.5345C29.7937 14.6998 29.8872 14.8707 29.9749 15.0364C30.0678 15.2132 30.1668 15.3965 30.249 15.5676C31.1097 17.3971 32.4256 19.5871 34.1802 22.0716C31.1704 18.9908 29.6953 16.5708 28.9827 15.0422C28.1381 13.2362 28.1435 12.2386 28.1435 12.2267C28.1435 12.1795 28.1161 12.1383 28.0724 12.1207C28.0285 12.1088 27.9845 12.1268 27.9627 12.1681C27.9299 12.2272 27.2114 13.62 27.217 15.8924C27.2227 17.2263 27.4746 18.5778 27.9735 19.9235C28.4781 21.2869 29.2399 22.6384 30.2437 23.9547C27.9241 21.889 27.6225 20.4901 27.6174 20.4725C27.6063 20.4253 27.5736 20.3897 27.5243 20.3897C27.4803 20.3897 27.4364 20.4194 27.4257 20.4606C27.4146 20.4901 27.2008 21.228 27.3047 22.3729C27.4033 23.4233 27.7094 25.1019 29.0801 26.772C29.0967 26.7957 29.1241 26.8075 29.1516 26.8075C29.1681 26.8075 29.1791 26.8014 29.1954 26.7957L31.6259 25.4652L33.8041 24.3349L41.0676 28.2334C41.1442 28.1153 41.1336 28.1034 41.1336 28.1034C41.7582 26.87 41.8128 24.539 38.7699 20.4663Z" fill="#C7D2FE"/>
<path d="M51.1837 34.4972C51.1562 34.4795 51.1175 34.4735 51.0904 34.4915L34.0925 43.6393C34.0598 43.6575 34.0376 43.6926 34.0376 43.7337V62.0301C34.0376 62.0654 34.0545 62.1014 34.0872 62.1187C34.1038 62.1304 34.1198 62.1366 34.1364 62.1366C34.1532 62.1366 34.1691 62.1306 34.1802 62.1249L51.1779 52.9767C51.2111 52.959 51.233 52.9238 51.233 52.8823V34.5857C51.2328 34.5557 51.2169 34.5208 51.1837 34.4972Z" fill="#6366F1"/>
<path d="M33.5005 43.6452L22.6274 37.7031C22.5834 37.6796 22.5288 37.6969 22.5011 37.7387C22.4738 37.7855 22.4851 37.8445 22.5231 37.8798C24.6068 39.6444 25.4664 40.4401 25.5516 42.8181C25.4878 43.7871 25.3549 44.4396 24.3728 45.0165C23.2582 45.6713 19.6846 44.8231 17.0769 44.1542C16.9338 44.1178 16.5002 43.9869 16.3154 44.1018C16.2285 44.1559 16.2128 44.238 16.2128 44.3705C16.2128 45.7185 16.3601 52.8819 16.3601 52.8819C16.3601 52.9234 16.3821 52.9588 16.4152 52.9763L33.413 62.124C33.4297 62.1304 33.4406 62.1365 33.457 62.1365C33.4734 62.1365 33.4951 62.1302 33.5063 62.1181C33.5338 62.1005 33.5558 62.0649 33.5558 62.03V43.7337C33.5553 43.6986 33.5335 43.6634 33.5005 43.6452Z" fill="#6366F1"/>
<path d="M50.8382 33.9485L41.736 29.0496L33.8402 24.8001C33.8127 24.7825 33.7803 24.7825 33.7527 24.8001L31.6578 25.9277L31.3291 26.1048L28.7795 27.48L27.7048 28.0582L27.4526 28.1941L21.0692 31.6296C21.0419 31.6415 20.9785 31.708 20.9729 31.7375C20.9676 31.7671 20.977 31.8551 20.9936 31.8786C22.1778 33.9383 22.5448 35.5719 22.1333 36.8823C22.117 36.9354 22.1565 37.0162 22.2003 37.0397L33.7469 43.2919C33.7633 43.2976 33.7744 43.3033 33.7904 43.3033C33.807 43.3033 33.8232 43.2974 33.8343 43.2919L50.8321 34.1437C50.8647 34.126 50.8869 34.0904 50.8869 34.0493C50.8869 34.0081 50.8712 33.9658 50.8382 33.9485Z" fill="#6366F1"/>
<path d="M21.9148 37.7612L21.5584 37.4956L21.7667 36.9819V36.9758C21.7667 36.9758 21.7667 36.9758 21.7667 36.9699C22.1833 35.6478 21.7996 33.9421 20.6261 31.8999C20.2532 31.2508 19.7928 30.5543 19.2551 29.8403C16.371 25.9924 12.6426 20.3203 11.2223 15.1559C10.5476 12.6888 10.63 11.0953 10.7723 10.5995C10.7833 10.5523 10.7666 10.5051 10.7284 10.4754C10.6902 10.4519 10.6407 10.4579 10.6076 10.4873C10.5638 10.5345 9.47284 11.6855 8.88616 13.9403C8.54054 15.2562 8.44194 16.6848 8.59547 18.1659C8.78193 20.0191 9.36315 21.9788 10.3173 23.9914C10.3942 24.1567 10.4872 24.3217 10.575 24.4872C10.6682 24.6583 10.7668 24.8412 10.8436 25.0125C11.688 26.8185 12.9876 28.9668 14.7091 31.4104C11.7482 28.3768 10.3006 25.9979 9.59328 24.4872C8.75976 22.7045 8.76539 21.719 8.76539 21.7072C8.76539 21.66 8.73776 21.6128 8.69391 21.6009C8.65007 21.5893 8.60623 21.607 8.58422 21.654C8.5513 21.7133 7.84401 23.0881 7.84931 25.331C7.85493 26.647 8.10707 27.9811 8.59514 29.3091C9.20399 30.9497 10.191 32.5729 11.5178 34.1316C10.6788 33.4822 9.90035 32.774 9.25312 32.0301C8.13454 30.7315 7.96462 29.9114 7.959 29.8995C7.94808 29.8523 7.90969 29.8168 7.86585 29.8168C7.82201 29.8168 7.77816 29.8464 7.76724 29.8875C7.75087 29.9347 7.43271 31.0207 7.77287 32.6025C8.33787 35.2291 10.2842 37.0942 11.8195 38.1978C11.9181 38.2686 12.0278 38.3391 12.1374 38.41C12.2469 38.4808 12.3622 38.5579 12.4664 38.6343C13.0091 39.0302 13.6509 39.4373 14.3855 39.8562C9.25312 38.0974 8.39776 36.1438 8.39214 36.1261C8.37559 36.085 8.33175 36.0551 8.28807 36.061C8.24456 36.067 8.2113 36.1026 8.20038 36.1495C8.19476 36.1911 8.05777 37.1822 8.60606 38.4571C9.51635 40.5819 11.6109 41.7979 13.2009 42.4474C13.3049 42.4885 13.4146 42.5297 13.5243 42.5655C13.6396 42.6064 13.7599 42.6479 13.8645 42.6892C14.6158 42.9961 15.4326 43.2794 16.2934 43.5213C18.6191 44.2076 22.8148 45.3045 23.9567 44.7262C25.1819 44.1057 25.1888 43.3197 24.9933 41.7313C24.9539 41.4102 24.8106 40.8656 24.2441 40.1378C23.5171 39.203 22.4211 38.2742 21.9148 37.7612Z" fill="#C7D2FE"/>
</svg>
