<svg width="179" height="179" viewBox="0 0 179 179" fill="none" xmlns="http://www.w3.org/2000/svg">
<path d="M116.516 57.1418C107.749 46.2661 96.396 30.2152 92.0771 15.5989C89.5065 6.8647 90.6938 2.74521 90.6938 2.69599C90.7261 2.56422 90.6764 2.43246 90.5626 2.34992C90.4467 2.28429 90.299 2.2997 90.1991 2.38224C90.0688 2.514 86.7563 5.77727 84.9594 12.1377C83.9052 15.8624 83.6079 19.8999 84.0693 24.1014C84.6456 29.3411 86.4093 34.8951 89.31 40.5803C89.5398 41.0418 89.8207 41.5191 90.0842 41.9815C90.3637 42.4753 90.661 42.9869 90.9081 43.4647C93.4947 48.5727 97.4496 54.687 102.723 61.6238C93.6772 53.0223 89.2439 46.2656 87.1024 41.9979C84.5641 36.9556 84.5805 34.1702 84.5805 34.1368C84.5805 34.0051 84.4979 33.8902 84.3667 33.841C84.2349 33.8077 84.1026 33.8579 84.037 33.9733C83.9386 34.1383 81.7791 38.0271 81.796 44.3717C81.8129 48.0959 82.5702 51.8693 84.0693 55.6263C85.5859 59.433 87.8756 63.2064 90.8922 66.8814C83.9212 61.1141 83.0147 57.2084 82.9993 57.1592C82.966 57.0275 82.8675 56.928 82.7194 56.928C82.5871 56.928 82.4553 57.011 82.423 57.1259C82.3897 57.2084 81.7473 59.2684 82.0596 62.4651C82.3559 65.3977 83.2758 70.0845 87.3952 74.7475C87.445 74.8136 87.5275 74.8464 87.6101 74.8464C87.6598 74.8464 87.6926 74.8295 87.7418 74.8136L95.046 71.0988L101.592 67.943L123.421 78.8277C123.652 78.498 123.62 78.4647 123.62 78.4647C125.497 75.0209 125.661 68.5128 116.516 57.1418Z" fill="#C7D2FE"/>
<path d="M153.824 96.3159C153.741 96.2667 153.625 96.2498 153.543 96.3L102.459 121.841C102.361 121.892 102.294 121.989 102.294 122.104V173.188C102.294 173.286 102.345 173.387 102.443 173.435C102.493 173.468 102.541 173.485 102.591 173.485C102.642 173.485 102.689 173.468 102.723 173.452L153.806 147.911C153.906 147.861 153.972 147.763 153.972 147.647V96.563C153.971 96.4795 153.924 96.382 153.824 96.3159Z" fill="#6366F1"/>
<path d="M100.68 121.857L68.0026 105.267C67.8703 105.201 67.7062 105.249 67.6232 105.366C67.5412 105.497 67.575 105.662 67.6893 105.76C73.9514 110.687 76.5349 112.909 76.791 119.548C76.5991 122.253 76.1998 124.075 73.2483 125.686C69.8985 127.514 59.1585 125.146 51.3218 123.278C50.8917 123.177 49.5885 122.811 49.0331 123.132C48.772 123.283 48.7248 123.512 48.7248 123.882C48.7248 127.646 49.1673 147.646 49.1673 147.646C49.1673 147.762 49.2335 147.861 49.3329 147.91L100.417 173.45C100.467 173.468 100.5 173.485 100.549 173.485C100.598 173.485 100.664 173.467 100.697 173.434C100.78 173.384 100.846 173.285 100.846 173.187V122.104C100.845 122.006 100.779 121.908 100.68 121.857Z" fill="#6366F1"/>
<path d="M152.785 94.7839L125.43 81.1063L101.701 69.2416C101.618 69.1924 101.521 69.1924 101.438 69.2416L95.142 72.39L94.154 72.8843L86.4918 76.7238L83.2618 78.3383L82.5041 78.7177L63.3198 88.3096C63.2377 88.3429 63.0473 88.5284 63.0304 88.6109C63.0145 88.6935 63.0428 88.9391 63.0925 89.0047C66.6516 94.7556 67.7545 99.3166 66.5179 102.975C66.4687 103.123 66.5875 103.349 66.7193 103.415L101.42 120.871C101.47 120.887 101.503 120.903 101.551 120.903C101.601 120.903 101.65 120.886 101.683 120.871L152.767 95.3289C152.865 95.2797 152.932 95.1802 152.932 95.0654C152.932 94.9505 152.884 94.8322 152.785 94.7839Z" fill="#6366F1"/>
<path d="M65.8611 105.429L64.79 104.688L65.416 103.253V103.236C65.416 103.236 65.416 103.236 65.416 103.22C66.668 99.5285 65.515 94.7661 61.9882 89.0644C60.8675 87.252 59.4837 85.3074 57.8677 83.3141C49.2001 72.5706 37.9952 56.734 33.7266 42.3151C31.6989 35.4271 31.9465 30.9779 32.3741 29.5937C32.4074 29.4619 32.3572 29.3301 32.2424 29.2471C32.1275 29.1815 31.9788 29.1984 31.8794 29.2804C31.7476 29.4122 28.469 32.6257 26.7058 38.9211C25.6671 42.595 25.3708 46.5837 25.8322 50.7191C26.3926 55.8932 28.1393 61.3647 31.0068 66.9838C31.238 67.4452 31.5174 67.9061 31.7814 68.368C32.0614 68.8459 32.3577 69.3565 32.5884 69.8349C35.1263 74.8772 39.0319 80.8752 44.2055 87.6976C35.3072 79.2279 30.9566 72.586 28.8309 68.368C26.3259 63.3909 26.3428 60.6392 26.3428 60.6064C26.3428 60.4746 26.2598 60.3429 26.128 60.3096C25.9963 60.2772 25.8645 60.3265 25.7984 60.4577C25.6994 60.6233 23.5738 64.4619 23.5897 70.7239C23.6066 74.3984 24.3644 78.1231 25.8312 81.8308C27.661 86.4112 30.6274 90.9434 34.6146 95.2951C32.0932 93.4822 29.7538 91.5048 27.8086 89.4279C24.4469 85.8021 23.9363 83.5124 23.9194 83.4791C23.8866 83.3474 23.7712 83.2484 23.6394 83.2484C23.5077 83.2484 23.3759 83.331 23.3431 83.4458C23.2939 83.5776 22.3377 86.6096 23.36 91.026C25.058 98.3595 30.9073 103.567 35.5216 106.648C35.8179 106.846 36.1476 107.042 36.4767 107.24C36.8059 107.438 37.1524 107.654 37.4657 107.867C39.0966 108.972 41.0253 110.109 43.233 111.278C27.8086 106.368 25.238 100.913 25.2211 100.864C25.1714 100.749 25.0396 100.666 24.9083 100.682C24.7776 100.699 24.6776 100.798 24.6448 100.929C24.6279 101.045 24.2162 103.813 25.864 107.372C28.5997 113.305 34.8946 116.7 39.6729 118.513C39.9856 118.628 40.3153 118.743 40.6449 118.843C40.9915 118.957 41.353 119.073 41.6672 119.188C43.9251 120.045 46.3799 120.836 48.9669 121.511C55.9564 123.427 68.5659 126.49 71.9978 124.875C75.6797 123.143 75.7006 120.948 75.1129 116.514C74.9945 115.617 74.5639 114.097 72.8615 112.064C70.6767 109.455 67.3826 106.861 65.8611 105.429Z" fill="#C7D2FE"/>
</svg>
