<svg width="390" height="136" viewBox="0 0 390 136" fill="none" xmlns="http://www.w3.org/2000/svg">
<path d="M387.295 79.6849C386.78 83.8097 353.529 80.3173 351.839 80.1577C332.005 78.2853 312.573 76.3362 296.054 64.3993C285.429 56.7214 276.682 46.971 268.319 36.9797C249.344 14.3101 219.3 -8.51611 188.424 7.19634C173.961 14.5569 162.358 26.3707 152.81 39.2647C149.307 43.995 139.952 55.8939 141.779 63.4538C143.211 69.375 151.067 89.9854 163.66 91.6104C179.16 93.6104 192.66 86.1104 197.16 69.6104C194.66 49.6104 177.308 44.1881 171.484 42.18C150.801 35.048 125.88 36.0254 104.353 38.1616C70.2139 41.5494 34.1379 55.3146 15.2395 85.2004C9.92858 93.5991 5.52693 102.934 3.10554 112.62C1.36162 119.596 1.92834 126.857 3.10554 133.894" stroke="#E2E2E2" stroke-width="4" stroke-linecap="round" stroke-dasharray="8 8"/>
</svg>
